<svg xmlns="http://www.w3.org/2000/svg" version="1.1" xmlns:xlink="http://www.w3.org/1999/xlink" xmlns:svgjs="http://svgjs.dev/svgjs" width="1440" height="560" preserveAspectRatio="none" viewBox="0 0 1440 560"><g mask="url(&quot;#SvgjsMask1006&quot;)" fill="none"><rect width="1440" height="560" x="0" y="0" fill="rgba(82, 82, 92, 1)"></rect><path d="M0,447.325C96.502,446.685,192.308,472.6,283.582,441.263C390.548,404.539,525.839,363.433,559.15,255.355C593.259,144.688,485.769,42.833,439.042,-63.125C405.287,-139.67,367.178,-208.861,323.084,-279.954C269.914,-365.68,246.348,-483.492,153.646,-523.27C60.601,-563.195,-43.13,-506.238,-140.627,-478.932C-239.382,-451.274,-348.266,-437.336,-418.847,-362.933C-490.525,-287.373,-524.98,-179.414,-523.546,-75.275C-522.206,22.037,-451.679,99.285,-411.262,187.817C-370.838,276.364,-368.331,393.098,-286.011,445.042C-203.714,496.972,-97.309,447.971,0,447.325" fill="#42424a"></path><path d="M1440 929.4100000000001C1522.284 926.977 1607.151 970.9110000000001 1681.859 936.3389999999999 1759.215 900.5419999999999 1819.98 825.887 1841.7730000000001 743.483 1862.576 664.822 1805.142 589.691 1794.88 508.976 1784.378 426.368 1839.048 324.217 1780.892 264.616 1721.873 204.13 1616.71 256.556 1533.606 241.20800000000003 1462.179 228.017 1401.329 178.324 1328.748 181.111 1243.999 184.36599999999999 1146.066 193.10199999999998 1091.68 258.179 1037.315 323.231 1062.143 420.4 1058.004 505.077 1054.27 581.458 1047.113 656.215 1068.636 729.596 1092.75 811.81 1113.324 910.321 1188.773 950.9169999999999 1264.318 991.5640000000001 1354.251 931.9449999999999 1440 929.4100000000001" fill="#62626e"></path></g><defs><mask id="SvgjsMask1006"><rect width="1440" height="560" fill="#ffffff"></rect></mask></defs></svg>