<svg xmlns="http://www.w3.org/2000/svg" version="1.1" xmlns:xlink="http://www.w3.org/1999/xlink" xmlns:svgjs="http://svgjs.dev/svgjs" width="1440" height="560" preserveAspectRatio="none" viewBox="0 0 1440 560"><g mask="url(&quot;#SvgjsMask1005&quot;)" fill="none"><path d="M139.93 591.95C332.14 581.28 460.73 240.71 821.68 233.95 1182.64 227.19 1330.48 116.78 1503.44 116.35" stroke="rgba(51,121,194,0.58)" stroke-width="2"/><path d="M471.35 613.24C643.76 604.89 777.38 305.97 1089.45 305.55 1401.53 305.13 1549.42 439.18 1707.56 439.95" stroke="rgba(51,121,194,0.58)" stroke-width="2"/><path d="M368.67 603.13C498.33 573.77 433.88 243.54 747.96 230.4 1062.04 217.26 1312.6 68.91 1506.54 68" stroke="rgba(51,121,194,0.58)" stroke-width="2"/><path d="M480.21 585.45C601.36 570.48 669.5 298.43 873.73 296.4 1077.96 294.37 1070.5 366.4 1267.26 366.4 1464.02 366.4 1560.86 296.67 1660.78 296.4" stroke="rgba(51,121,194,0.58)" stroke-width="2"/><path d="M540.86 665.33C629.55 665.32 619.34 647.18 895.01 644.45 1170.67 641.72 1413.46 374.79 1603.3 370.05" stroke="rgba(51,121,194,0.58)" stroke-width="2"/></g><defs><mask id="SvgjsMask1005"><rect width="1440" height="560" fill="white"/></mask></defs></svg>